<svg width="67" height="80" viewBox="0 0 67 80" fill="none" xmlns="http://www.w3.org/2000/svg">
<g id="Group 39939">
<path id="Vector" fill-rule="evenodd" clip-rule="evenodd" d="M53.9039 25.1241H66.2738V0H41.1489V12.3699H53.9039V25.1241Z" fill="#865DFF"/>
<path id="Vector_2" fill-rule="evenodd" clip-rule="evenodd" d="M24.2571 24.2575C19.3529 29.1616 19.3529 37.1127 24.2571 42.0161C29.1613 46.9203 37.1123 46.9203 42.0157 42.0161C46.9199 37.1119 46.9199 29.1608 42.0157 24.2575C39.5637 21.8054 36.3498 20.5789 33.136 20.5789C29.9222 20.5789 26.7084 21.8054 24.2563 24.2575H24.2571Z" fill="#865DFF"/>
<path id="Vector_3" fill-rule="evenodd" clip-rule="evenodd" d="M9.70574 9.70574C-3.23525 22.6467 -3.23525 43.6276 9.70574 56.5686L33.1372 80L56.5686 56.5686C63.0391 50.0981 66.2743 41.6172 66.2743 33.1372H53.9044C53.9044 38.6744 51.7379 43.9055 47.8221 47.8213C39.7087 55.9339 26.5656 55.9339 18.453 47.8213C10.3404 39.7087 10.3404 26.5656 18.453 18.4522C22.3688 14.5364 27.6006 12.3699 33.1379 12.3699V0C24.6571 0 16.177 3.23525 9.7065 9.70574H9.70574Z" fill="#009FBD"/>
</g>
</svg>
